<svg version="1.1" id="Calque_1" xmlns="http://www.w3.org/2000/svg" x="0" y="0" viewBox="0 0 512 367.2" xml:space="preserve"><style>.st0{fill:#c29866}</style><path class="st0" d="M106.7 171.5c26.2 0 47.4-21.3 47.4-47.5 0-26.1-21.2-47.4-47.4-47.4-26.1 0-47.4 21.3-47.4 47.4 0 26.2 21.3 47.5 47.4 47.5zm0-76.7c16.1 0 29.2 13.1 29.2 29.2s-13.1 29.2-29.2 29.2-29.2-13.1-29.2-29.2 13.1-29.2 29.2-29.2z"/><path class="st0" d="M488.1 0H23.9C10.7 0 0 10.8 0 24v319.3c0 13.2 10.7 23.9 23.9 23.9H488c13.2 0 23.9-10.7 23.9-23.9V24c.1-13.2-10.6-24-23.8-24zm5.7 349H18.2V18.2h475.6V349z"/><path class="st0" d="M112.1 298.8c0 4.9 4 9 8.9 9.1h322.4c5 0 9.1-4.1 9.1-9.1 0-2.1-.7-4-2-5.7l-2.3-2.9-123.8-155.7c-3.4-4.7-11-4.8-14.5-.2l-64.7 81.1-27.3-34.3c-1.8-2.4-4.5-3.7-7.3-3.7-2.9 0-5.6 1.4-7.3 3.7l-88.6 111.4c-2 2.5-2.6 4.4-2.6 6.3zm98.4-97.6l34.7 43.5 71.8-90.2 107.6 135.2H140.1l70.4-88.5z"/></svg>